<?xml version="1.0" encoding="utf-8"?>
<svg viewBox="0 0 274 568" fill="none" xmlns="http://www.w3.org/2000/svg">
  <mask id="a" width="274" height="568" x="0" y="0" maskUnits="userSpaceOnUse" style="mask-type:alpha">
    <rect width="274" height="568" fill="#fff" rx="10"/>
  </mask>
  <rect width="274" height="568" rx="10" style="fill: rgb(48, 127, 89);" transform="matrix(1, 0, 0, 1, 0, 1.4210854715202004e-14)"/>
  <g mask="url(#a)" transform="matrix(1, 0, 0, 1, 0, 1.4210854715202004e-14)">
    <path fill-rule="evenodd" d="M-34.692 543.101C3.247 632.538 168.767 685.017 211.96 612.52c43.194-72.497-66.099-85.653-104.735-160.569-38.635-74.916-68.657-121.674-124.482-104.607-55.824 17.068-55.375 106.32-17.436 195.757Z" clip-rule="evenodd" style="fill: rgb(178, 217, 58);"/>
    <path fill-rule="evenodd" d="M 292.738 329.983 C 353.417 301.705 385.577 186.457 334.613 158.455 C 283.648 130.452 277.216 206.034 226.554 234.442 C 175.892 262.85 144.414 284.649 157.51 322.683 C 170.606 360.717 232.059 358.261 292.738 329.983 L 292.738 329.983 Z" clip-rule="evenodd" style="fill: rgb(22, 58, 44);"/>
    <path d="M 6.027 101.472 C 43.03 101.472 73.027 71.475 73.027 34.472 C 73.027 -2.531 43.03 -32.528 6.027 -32.528 C -30.976 -32.528 -60.973 -2.531 -60.973 34.472 C -60.973 71.475 -30.976 101.472 6.027 101.472 Z" style="opacity: 0.9; fill: rgb(255, 255, 255);"/>
  </g>
</svg>