<svg version="1.1" id="Layer_1" xmlns="http://www.w3.org/2000/svg" xmlns:xlink="http://www.w3.org/1999/xlink" viewBox="0 0 1024 1024" >
<path fill="#21b359" opacity="1.000000" stroke="none" 
	d="
M413.272095,222.189484 
	C447.558899,205.225693 483.457428,195.371353 521.349426,196.254974 
	C588.192810,197.813690 644.888550,223.380798 690.503052,272.443787 
	C722.641052,307.011536 741.740356,348.344269 751.423828,394.239471 
	C757.045410,420.883087 757.530701,447.631470 753.494019,474.607941 
	C745.238281,529.779785 722.501526,577.676025 682.086853,616.430786 
	C645.860901,651.168884 602.484863,671.639587 552.645752,678.020386 
	C547.920532,678.625427 542.860779,680.029602 538.202759,677.931824 
	C537.728943,675.592712 538.992676,674.327087 539.876709,672.968933 
	C568.686401,628.709961 597.544189,584.482422 626.331482,540.208923 
	C644.310913,512.557312 662.119995,484.794891 680.136169,457.167389 
	C691.452209,439.814301 686.761169,421.601624 672.193298,410.138916 
	C669.459839,407.988190 668.288818,405.980530 668.514343,402.240631 
	C671.555725,351.818359 654.072693,309.556976 615.876038,276.739197 
	C585.034424,250.240723 548.828674,238.245667 507.805481,240.959747 
	C442.125153,245.305130 387.900726,293.475891 372.111176,353.256653 
	C367.948517,369.016846 366.282440,384.987183 367.377045,401.215057 
	C367.642029,405.143372 366.583466,407.695343 363.303802,410.009338 
	C350.457489,419.073242 344.113739,439.159271 354.748474,455.348267 
	C373.040253,483.193542 391.045166,511.227325 409.344482,539.067627 
	C411.782318,542.776489 411.817047,544.906189 407.967041,547.579041 
	C392.778381,558.123840 377.836823,569.024170 362.675140,579.608582 
	C358.996887,582.176331 358.726990,584.123474 361.848572,587.436951 
	C367.829865,593.785828 367.652405,593.915283 374.555420,588.875732 
	C388.146545,578.953491 401.860718,569.195190 415.294037,559.064148 
	C419.026520,556.249207 420.883820,557.036072 423.166229,560.545532 
	C436.880371,581.632935 450.676727,602.667114 464.521545,623.669067 
	C475.158295,639.804443 485.932312,655.849365 496.568237,671.985352 
	C497.678467,673.669739 499.986633,675.474426 498.380371,677.699036 
	C496.959625,679.666748 494.435822,678.870117 492.292664,678.630005 
	C426.166992,671.220093 371.791260,642.140503 330.493439,589.791687 
	C313.343872,568.052979 301.585999,543.258606 292.244202,517.157654 
	C280.824860,485.252106 278.653168,452.335938 281.139893,419.147736 
	C284.810913,370.154175 303.071564,326.578156 333.525513,288.052795 
	C355.322388,260.478943 381.231262,237.928009 413.272095,222.189484 
M687.215454,335.285736 
	C687.835205,336.459320 688.293457,337.761932 689.107605,338.780090 
	C690.897217,341.018097 692.850891,343.222839 696.214844,341.874786 
	C699.691528,340.481598 701.388611,337.769958 701.290466,334.107178 
	C701.251709,332.659973 700.743530,331.137421 700.114746,329.807251 
	C691.899719,312.429535 681.732361,296.308563 668.688110,282.131592 
	C663.924744,276.954590 660.160400,276.371124 656.684631,279.540710 
	C653.525940,282.421173 654.118652,285.476990 658.974854,291.156494 
	C670.269836,304.366486 679.798218,318.710175 687.215454,335.285736 
z"/>
<path fill="#21b359" opacity="1.000000" stroke="none" 
	d="
M649.259766,367.161133 
	C654.525269,399.034332 649.911438,429.149994 634.954468,457.111206 
	C626.021973,473.809998 614.964417,489.376221 604.789185,505.405273 
	C581.403748,542.244690 557.383545,578.681946 534.729919,615.985107 
	C534.211304,616.839111 533.758423,617.733337 533.233398,618.583252 
	C524.932739,632.019287 512.061768,632.260803 503.583801,618.953369 
	C472.174042,569.651123 440.876495,520.277466 409.485107,470.963531 
	C398.666321,453.967957 390.070160,436.145966 386.941498,415.961395 
	C380.434753,373.983612 390.744141,336.756744 418.117188,304.323761 
	C440.443024,277.870941 469.247559,262.685730 503.334442,259.056183 
	C542.200806,254.917786 576.893250,266.436554 606.210571,292.379974 
	C628.682617,312.265961 643.169861,337.147797 649.259766,367.161133 
M538.979370,289.512726 
	C534.718628,288.797760 530.479797,287.654144 526.193787,287.435364 
	C490.412323,285.609192 460.908600,298.637390 438.545105,326.449280 
	C419.108429,350.621307 411.240021,378.286957 417.411255,409.220673 
	C420.429749,424.350952 427.899353,437.508301 436.080627,450.342621 
	C460.072876,487.980377 484.097687,525.598145 507.891174,563.361389 
	C515.852783,575.997437 521.074341,576.259033 528.931274,563.636169 
	C549.438293,530.689697 569.930054,497.733612 590.492004,464.821442 
	C597.900391,452.963348 606.328308,441.684113 611.955322,428.806335 
	C623.772705,401.761475 624.499023,374.492859 611.553772,347.692047 
	C596.834473,317.218079 572.525208,298.136444 538.979370,289.512726 
z"/>
<path fill="#21b359" opacity="1.000000" stroke="none" 
	d="
M599.694214,739.999268 
	C599.708862,728.167480 599.691650,716.835327 599.757935,705.503662 
	C599.782654,701.275818 599.869385,696.733398 604.668518,694.986938 
	C609.787048,693.124329 613.557495,695.609070 616.699402,699.703247 
	C622.987366,707.897034 629.436646,715.967773 635.879761,724.041077 
	C637.310425,725.833679 638.601807,727.830322 640.804810,728.923035 
	C642.269958,727.712708 641.667847,726.101135 641.680298,724.706909 
	C641.744263,717.541687 641.630371,710.374634 641.723389,703.210083 
	C641.793396,697.819336 644.500244,694.843811 649.328003,694.507263 
	C654.572693,694.141785 658.380310,697.220703 659.015259,702.427185 
	C659.175781,703.743286 659.120483,705.089478 659.114807,706.421631 
	C659.047119,722.252625 658.947754,738.083496 658.909668,753.914612 
	C658.898865,758.405457 657.749390,762.255127 653.227478,764.085266 
	C648.457031,766.015869 644.701355,763.902771 641.747375,760.360474 
	C635.559204,752.940002 629.572266,745.351929 623.478210,737.852600 
	C621.845337,735.843201 620.394592,733.625793 617.280518,731.688477 
	C617.280518,739.716064 617.310608,746.979126 617.271545,754.241760 
	C617.236511,760.768982 614.085449,764.366760 608.369568,764.526062 
	C603.076904,764.673584 600.001526,761.171082 599.791138,754.496338 
	C599.644165,749.834167 599.719482,745.165039 599.694214,739.999268 
z"/>
<path fill="#21b359" opacity="1.000000" stroke="none" 
	d="
M519.913330,699.872742 
	C541.708130,710.422119 544.315491,741.228333 526.706787,756.128174 
	C520.774780,761.147644 513.924805,763.963867 506.228516,764.285950 
	C498.912628,764.592102 491.574249,764.463684 484.247589,764.375793 
	C479.158752,764.314758 475.922791,761.586426 475.856903,756.460999 
	C475.625641,738.476562 475.651917,720.487366 475.757477,702.500977 
	C475.781860,698.345398 478.324188,695.151245 482.414642,695.003662 
	C495.016724,694.548950 507.798157,693.417175 519.913330,699.872742 
M509.939362,746.658386 
	C518.637085,742.857971 522.508484,735.888916 520.762756,727.174683 
	C518.614929,716.453430 505.328705,708.918884 494.554718,712.225037 
	C492.704590,712.792664 492.327759,714.003845 492.324310,715.600525 
	C492.303833,725.091919 492.323059,734.583557 492.262024,744.074646 
	C492.246155,746.542053 493.217834,747.855957 495.770172,747.786011 
	C500.244415,747.663391 504.768585,748.262573 509.939362,746.658386 
z"/>
<path fill="#21b359" opacity="1.000000" stroke="none" 
	d="
M458.717743,753.633728 
	C444.580017,771.077759 412.437225,770.236389 399.164764,754.238770 
	C393.807892,747.781982 391.050446,740.469971 390.762604,732.311768 
	C390.427948,722.828735 390.624207,713.324646 390.694763,703.830444 
	C390.740295,697.704407 393.464294,694.656738 398.716217,694.544678 
	C404.334747,694.424744 407.327789,697.464966 407.381775,703.667542 
	C407.461517,712.828247 407.210815,721.994324 407.427551,731.150452 
	C407.652496,740.653992 415.641632,748.432068 425.927063,749.612366 
	C436.188782,750.789978 445.382690,745.325134 448.109589,736.489624 
	C449.120026,733.215637 448.670441,729.877930 448.701355,726.567932 
	C448.772980,718.906128 448.655090,711.242432 448.752747,703.581238 
	C448.824524,697.955078 451.369354,694.810913 455.881897,694.385742 
	C461.179565,693.886597 465.399506,696.536865 465.691437,702.001648 
	C466.391479,715.105774 467.345764,728.292236 464.838928,741.322632 
	C463.984802,745.762329 461.668915,749.711792 458.717743,753.633728 
z"/>
<path fill="#21b359" opacity="1.000000" stroke="none" 
	d="
M276.359375,729.591248 
	C269.815796,720.470276 269.271667,712.085083 274.485291,704.255066 
	C280.346039,695.453125 291.444153,690.868591 301.967957,693.069397 
	C307.535675,694.233704 312.943451,695.804810 317.072968,700.182190 
	C321.165955,704.520813 322.050781,708.273682 319.503937,711.653320 
	C316.611633,715.491394 311.127991,716.323792 306.526093,713.482605 
	C304.100189,711.984863 301.624725,710.743347 298.860962,709.942505 
	C296.575256,709.280212 294.560516,709.768921 292.573456,710.641113 
	C290.676208,711.473999 289.035400,712.834351 288.923187,715.028625 
	C288.810394,717.234680 290.764709,718.183350 292.426971,718.776489 
	C297.433136,720.562805 302.529358,722.095947 307.585144,723.744080 
	C317.764099,727.062500 323.099487,733.070068 323.324677,741.446289 
	C323.593170,751.431885 318.052277,759.914856 308.490021,763.523254 
	C296.162567,768.175171 284.912323,765.714600 274.850677,757.544495 
	C271.430878,754.767639 269.200195,751.222290 271.597900,746.620544 
	C273.470581,743.026550 278.318054,741.538391 283.055756,743.208252 
	C285.218842,743.970642 287.166107,745.349792 289.203613,746.463196 
	C293.655060,748.895569 298.257996,749.820374 303.043701,747.570862 
	C304.732849,746.776855 306.239380,745.484924 306.146667,743.404602 
	C306.060516,741.472656 304.399292,740.561279 302.836395,740.041260 
	C299.690582,738.994507 296.463623,738.188171 293.260925,737.316467 
	C287.319397,735.698975 281.256805,734.361572 276.359375,729.591248 
z"/>
<path fill="#21b359" opacity="1.000000" stroke="none" 
	d="
M765.604980,731.548706 
	C774.147766,742.894531 768.752258,760.983948 749.937805,765.032776 
	C738.827332,767.423828 728.796326,764.258362 720.215149,756.879028 
	C717.410156,754.466919 714.786926,751.659058 717.131042,747.407593 
	C719.320251,743.437073 723.600098,741.883728 728.311890,743.656555 
	C731.573975,744.883850 734.639160,746.631958 737.895020,747.879150 
	C741.966187,749.438354 746.099487,749.413696 749.904114,747.048157 
	C753.398438,744.875427 753.361267,742.246521 749.812317,740.220520 
	C747.046875,738.641785 743.925232,737.950256 740.818604,737.347046 
	C737.378845,736.679199 734.073425,735.620056 730.765198,734.464172 
	C722.408997,731.544495 717.888184,725.531860 717.351196,716.976135 
	C716.809753,708.349304 720.530090,701.473328 727.985352,696.844421 
	C737.893738,690.692444 753.320129,691.900696 762.204773,699.481384 
	C766.830261,703.428101 768.061768,707.677917 765.576843,711.118469 
	C762.839783,714.908142 756.807373,715.806702 752.189209,713.016174 
	C747.477600,710.169189 742.756958,707.796204 737.335815,711.310486 
	C733.739807,713.641663 733.701294,715.881653 737.416626,717.989014 
	C741.801819,720.476379 746.743164,721.481018 751.524841,722.900024 
	C756.858887,724.482910 761.900757,726.581299 765.604980,731.548706 
z"/>
<path fill="#21b359" opacity="1.000000" stroke="none" 
	d="
M594.032227,704.606689 
	C592.707336,709.535339 589.642883,711.419983 585.047485,711.355347 
	C579.219299,711.273499 573.386658,711.457520 567.560242,711.330688 
	C563.518250,711.242737 563.004700,713.677917 562.951477,716.846741 
	C562.896667,720.107910 564.079651,721.867737 567.596680,721.766113 
	C571.757202,721.645935 575.927063,721.619385 580.086609,721.750916 
	C585.269531,721.914856 588.764465,725.415222 588.753845,730.179260 
	C588.744507,734.403137 585.482361,737.256836 580.326477,737.371704 
	C575.831543,737.471985 571.328979,737.535156 566.837341,737.387207 
	C563.191589,737.267090 562.268616,739.120483 562.371338,742.344788 
	C562.470947,745.469238 562.200256,748.654724 566.742004,748.523804 
	C572.897827,748.346313 579.053711,747.962097 585.207947,747.992554 
	C591.258118,748.022522 595.400940,752.696716 594.150330,757.957092 
	C593.205261,761.932434 590.549683,764.298218 586.305237,764.340759 
	C576.146362,764.442627 565.985962,764.559998 555.827698,764.477661 
	C550.308228,764.432922 546.740906,760.895996 546.707031,755.351807 
	C546.602356,738.197144 546.595276,721.040833 546.718445,703.886353 
	C546.760803,697.984375 550.139587,694.811646 556.266907,694.726135 
	C565.758789,694.593628 575.254211,694.643372 584.747498,694.704102 
	C591.335938,694.746277 593.696533,697.213989 594.032227,704.606689 
z"/>
<path fill="#21b359" opacity="1.000000" stroke="none" 
	d="
M336.251648,694.665039 
	C350.029510,694.665833 363.338287,694.643372 376.646942,694.679626 
	C382.752991,694.696228 386.424255,698.118530 386.277588,703.508972 
	C386.137146,708.670776 382.565308,711.715942 376.324554,711.464844 
	C363.720764,710.957825 365.431366,710.890869 365.348206,722.247620 
	C365.266602,733.393066 365.351746,744.539734 365.293854,755.685425 
	C365.272827,759.738281 363.378662,762.768433 359.533112,764.169434 
	C356.299896,765.347412 353.330353,764.568237 350.825714,762.102295 
	C348.861725,760.168640 348.638733,757.758606 348.606903,755.203735 
	C348.449524,742.569458 348.105225,729.935669 348.126221,717.302185 
	C348.133575,712.882935 346.862000,710.701172 342.125549,711.323975 
	C340.164886,711.581726 338.136719,711.398560 336.143127,711.319275 
	C330.079834,711.078369 326.596802,707.657410 326.684387,702.091492 
	C326.763214,697.085449 329.306000,695.010010 336.251648,694.665039 
z"/>
<path fill="#21b359" opacity="1.000000" stroke="none" 
	d="
M680.779480,740.997681 
	C680.781311,732.674683 680.583191,724.844299 680.857239,717.030457 
	C681.007141,712.755676 679.746521,710.831909 675.242188,711.262268 
	C672.966003,711.479797 670.557129,711.260315 668.321350,710.746460 
	C663.933350,709.738220 661.965088,706.473694 662.179138,702.241089 
	C662.402832,697.817566 665.316345,694.926514 669.560059,694.833130 
	C682.536133,694.547607 695.525879,694.589478 708.504028,694.834412 
	C713.140198,694.921875 716.276489,698.730713 716.239624,703.059875 
	C716.199707,707.749207 712.969788,711.031555 708.069946,711.362000 
	C697.355835,712.084656 697.377869,712.084595 697.399536,722.991699 
	C697.421021,733.811279 697.427612,744.631165 697.371033,755.450562 
	C697.339478,761.497437 694.981018,764.247192 689.802795,764.537476 
	C684.791443,764.818481 681.507935,762.131775 680.985291,756.464417 
	C680.528442,751.511108 680.817139,746.488953 680.779480,740.997681 
z"/>
<path fill="#21b359" opacity="1.000000" stroke="none" 
	d="
M568.042480,798.016541 
	C567.976868,803.833069 568.039368,809.158997 567.802063,814.471680 
	C567.673157,817.356018 566.913452,820.239563 563.570740,821.101929 
	C560.400940,821.919800 557.786804,820.975342 555.631653,818.332397 
	C551.549316,813.326172 547.587830,808.193176 541.887634,803.040283 
	C541.887634,807.637695 541.949890,811.342834 541.869873,815.044861 
	C541.791748,818.665039 540.292725,821.190125 536.270020,821.225098 
	C532.371277,821.259094 530.284912,818.837585 530.187988,815.323242 
	C529.917603,805.520691 529.773926,795.700317 530.078979,785.902466 
	C530.230225,781.045105 534.934448,779.274353 539.332458,781.951172 
	C542.126892,783.652039 543.577087,786.579163 545.629883,788.956787 
	C548.020325,791.725464 550.416626,794.489075 552.811523,797.253845 
	C553.460144,798.002686 554.112976,798.747803 555.699219,800.567688 
	C555.699219,795.671265 555.640442,792.114563 555.713440,788.560608 
	C555.816162,783.556030 558.276123,780.510742 562.139404,780.785828 
	C566.908752,781.125305 567.942505,784.590149 568.066528,788.541016 
	C568.160339,791.530945 568.059631,794.527100 568.042480,798.016541 
z"/>
<path fill="#21b359" opacity="1.000000" stroke="none" 
	d="
M454.198730,821.234741 
	C450.620575,820.325928 449.814911,817.903442 449.800873,815.043640 
	C449.755981,805.890869 449.752899,796.737854 449.738068,787.584961 
	C449.731354,783.431885 451.803192,781.556030 455.957428,781.650818 
	C460.781067,781.761047 465.609161,781.667236 470.435272,781.680176 
	C476.513489,781.696411 480.984253,784.380432 483.573242,789.900146 
	C486.239014,795.583557 485.708801,800.991821 481.240112,805.534180 
	C479.106689,807.702759 479.509705,809.345398 480.875275,811.629333 
	C482.519928,814.380005 485.028473,817.423157 481.180450,820.396301 
	C478.414581,822.533386 474.231323,821.225708 471.318604,817.348450 
	C470.023193,815.624146 468.961914,813.724792 467.777191,811.916199 
	C466.681671,810.243774 464.997498,810.173584 463.324066,810.524292 
	C461.537964,810.898621 461.878723,812.460022 461.805634,813.763489 
	C461.550873,818.305115 459.930115,821.562500 454.198730,821.234741 
M472.758179,794.548523 
	C471.217957,792.737427 469.158112,792.320251 466.916687,792.323792 
	C464.525452,792.327576 462.128418,792.118286 462.011047,795.637695 
	C461.908813,798.703613 462.415497,800.709167 466.250885,800.712463 
	C471.859100,800.717285 473.132935,799.920288 472.758179,794.548523 
z"/>
<path fill="#21b359" opacity="1.000000" stroke="none" 
	d="
M335.746948,797.275696 
	C336.834015,797.144653 337.518036,796.951782 338.157654,797.049438 
	C342.359161,797.690918 348.138489,794.625061 349.841034,801.391174 
	C351.992218,809.940430 349.091217,816.411255 342.219360,819.414734 
	C328.164825,825.557495 313.447662,818.062561 311.295135,803.666199 
	C310.133759,795.898865 314.360748,787.370178 321.336884,783.405273 
	C328.506714,779.330383 338.358215,780.008850 344.363770,785.065674 
	C346.307007,786.701843 348.520660,788.601074 346.211212,791.292969 
	C344.260498,793.566772 342.304443,796.607239 338.390442,793.727600 
	C336.856873,792.599243 334.764954,792.021912 332.840637,791.676086 
	C328.948090,790.976440 324.061371,794.206177 322.583923,798.151123 
	C321.046478,802.256287 322.842010,806.414673 327.290833,809.052002 
	C331.575073,811.591736 335.279358,811.232971 338.556976,807.664978 
	C335.300720,806.575012 330.022186,808.691833 329.991058,802.852173 
	C329.973450,799.541687 332.062134,797.748718 335.746948,797.275696 
z"/>
<path fill="#21b359" opacity="1.000000" stroke="none" 
	d="
M492.621094,802.993286 
	C492.621674,797.339478 492.614807,792.184082 492.628143,787.028687 
	C492.637634,783.351501 494.386963,781.579529 498.176086,781.640015 
	C504.826782,781.746277 511.480286,781.684631 518.132629,781.677246 
	C521.641663,781.673340 524.072266,783.214111 524.152527,786.846069 
	C524.234436,790.549622 521.679504,792.069153 518.272827,792.200378 
	C515.283264,792.315552 512.281006,792.144775 509.295654,792.307678 
	C507.500977,792.405640 504.684937,791.375793 504.564911,794.393494 
	C504.441193,797.504395 507.273376,796.564148 509.080841,796.697021 
	C511.066803,796.843079 513.080688,796.635559 515.062073,796.811462 
	C518.535400,797.119934 520.628235,798.931030 520.476379,802.625061 
	C520.333496,806.103271 517.899353,806.966675 514.986694,807.072998 
	C512.660889,807.157959 510.328461,807.071899 508.003693,807.171997 
	C506.426758,807.239929 504.445831,806.917725 504.598969,809.854126 
	C507.391144,811.230774 510.360077,809.729004 513.221924,810.071899 
	C515.356506,810.327576 517.554138,810.162720 519.657166,810.548157 
	C522.428345,811.056091 524.120728,812.955139 524.074890,815.784973 
	C524.025208,818.849792 522.114441,820.966187 519.132812,821.073914 
	C512.158936,821.325684 505.159119,821.398438 498.191803,821.072388 
	C494.479187,820.898621 492.846893,818.007019 492.717255,814.466492 
	C492.583466,810.811951 492.645782,807.150330 492.621094,802.993286 
z"/>
<path fill="#21b359" opacity="1.000000" stroke="none" 
	d="
M647.064331,809.055054 
	C647.775085,810.611938 648.276978,811.847107 648.868958,813.037537 
	C650.203674,815.721741 651.290710,818.515808 647.990417,820.447815 
	C645.154358,822.108093 641.461182,822.192444 639.864929,819.376038 
	C635.332703,811.379883 628.041016,814.659851 621.665344,814.157104 
	C619.214600,813.963806 618.311218,815.987061 617.335510,817.723511 
	C615.530334,820.936462 612.836487,822.430786 609.441284,820.777222 
	C605.768738,818.988770 606.162354,815.688110 607.612244,812.585754 
	C611.837341,803.545105 615.961182,794.446228 620.545776,785.588013 
	C623.996094,778.921509 630.890869,778.797913 634.596802,785.303284 
	C638.957458,792.957886 642.818542,800.897156 647.064331,809.055054 
M626.627563,797.770447 
	C626.102417,799.566223 624.342590,801.047668 625.302979,803.569397 
	C627.089294,803.641541 628.941711,804.233215 631.122009,802.962158 
	C629.744873,800.868164 631.080872,797.232239 626.627563,797.770447 
z"/>
<path fill="#21b359" opacity="1.000000" stroke="none" 
	d="
M380.382324,806.873962 
	C375.879120,807.663696 371.524445,806.238647 367.562317,807.965332 
	C367.949860,810.681946 369.545227,810.090271 370.754425,810.112000 
	C374.743195,810.183655 378.752502,809.959412 382.716431,810.293579 
	C385.802368,810.553711 388.221985,812.361328 388.047516,815.763855 
	C387.883057,818.971130 385.708710,821.022095 382.499023,821.119141 
	C376.017517,821.315369 369.518707,821.376709 363.041565,821.122742 
	C358.861328,820.958801 356.824280,818.031860 356.752777,814.100586 
	C356.592499,805.286682 356.642334,796.467529 356.719360,787.651489 
	C356.754700,783.607910 358.937103,781.610413 363.034668,781.643066 
	C369.189514,781.692078 375.345215,781.688721 381.500122,781.645508 
	C385.350830,781.618469 387.742554,783.681335 387.756134,787.266785 
	C387.769592,790.809082 385.051880,792.317261 381.595642,792.323608 
	C377.935913,792.330322 374.276123,792.344666 370.616638,792.383911 
	C369.195465,792.399109 367.804382,792.730103 367.755005,794.452759 
	C367.705872,796.167542 369.017639,796.626221 370.479919,796.651978 
	C373.140930,796.699036 375.804596,796.654907 378.463348,796.752380 
	C381.110199,796.849487 383.519104,797.567932 384.179382,800.549927 
	C384.830078,803.488647 384.055084,805.846802 380.382324,806.873962 
z"/>
<path fill="#21b359" opacity="1.000000" stroke="none" 
	d="
M701.703613,821.381592 
	C697.982239,821.318787 695.097412,819.978760 692.605896,818.006042 
	C690.648376,816.456116 687.623352,814.848877 689.797302,811.617493 
	C691.740967,808.728333 694.415588,806.570496 698.230469,808.489746 
	C702.149231,810.460999 706.007263,811.982666 710.297424,809.483704 
	C709.862122,806.687805 707.557861,807.144592 706.006165,806.636047 
	C703.807678,805.915466 701.465454,805.640869 699.250793,804.960388 
	C694.591980,803.528809 691.366760,800.560242 690.766113,795.568054 
	C690.106628,790.087769 692.299744,785.539124 697.120667,783.027161 
	C704.145569,779.366821 711.299622,780.065796 717.966980,784.272217 
	C720.117371,785.628845 722.103088,787.649597 720.016602,790.437927 
	C718.107544,792.989319 715.975037,795.375671 712.111572,793.491333 
	C705.929199,790.476135 705.736877,790.549622 702.411560,793.369202 
	C704.738953,795.873901 708.042297,795.927734 710.930359,796.804321 
	C719.674011,799.458069 723.166443,803.582031 722.318726,810.583740 
	C721.580933,816.677307 715.692139,821.036377 707.594177,821.420227 
	C705.772217,821.506592 703.941833,821.412598 701.703613,821.381592 
z"/>
<path fill="#21b359" opacity="1.000000" stroke="none" 
	d="
M403.479553,803.136230 
	C403.507477,801.390503 403.441437,800.047668 403.582977,798.726990 
	C404.093048,793.966370 402.593475,791.523132 397.243011,792.266174 
	C393.464996,792.790894 390.490387,791.177124 390.440460,786.901367 
	C390.389526,782.537964 393.426636,781.186951 397.202118,781.498108 
	C403.719788,782.035156 410.179810,780.873657 416.673218,781.091125 
	C418.660370,781.157715 420.712250,781.207947 422.604919,781.732910 
	C425.510559,782.538879 427.862000,784.241150 427.460968,787.719727 
	C427.085815,790.974121 424.527405,792.403076 421.738800,792.140747 
	C415.850708,791.586792 414.721527,794.427734 415.078735,799.519897 
	C415.427490,804.491455 415.183228,809.514587 415.017487,814.509094 
	C414.897400,818.127258 413.759369,821.290161 409.364380,821.261536 
	C405.069977,821.233582 403.770752,818.249939 403.642578,814.544861 
	C403.515869,810.882202 403.529022,807.214661 403.479553,803.136230 
z"/>
<path fill="#21b359" opacity="1.000000" stroke="none" 
	d="
M584.661987,803.037964 
	C584.662537,801.717102 584.663452,800.886597 584.662781,800.056091 
	C584.656860,792.812439 584.660339,792.755615 577.291870,792.287537 
	C573.805176,792.066040 571.371399,790.640991 571.479431,786.944580 
	C571.581970,783.434875 573.729980,781.656494 577.356384,781.598938 
	C584.660217,781.483093 591.961853,781.232910 599.265137,781.071106 
	C600.422546,781.045471 601.594788,781.112732 602.741150,781.273315 
	C606.231873,781.762329 608.900146,783.244812 608.509155,787.304932 
	C608.157288,790.959106 605.589539,792.588135 602.240417,792.250183 
	C597.261169,791.747620 595.889465,793.837219 596.209412,798.514099 
	C596.571472,803.804810 596.345947,809.139465 596.288330,814.454041 
	C596.248779,818.100525 595.183960,821.248779 590.853210,821.352722 
	C586.367065,821.460510 584.867065,818.388489 584.718140,814.489868 
	C584.578674,810.840637 584.671143,807.182495 584.661987,803.037964 
z"/>
<path fill="#21b359" opacity="1.000000" stroke="none" 
	d="
M670.993896,821.295410 
	C667.175842,821.284729 663.850586,821.330627 660.528442,821.249146 
	C656.764526,821.156921 654.669189,819.338745 654.681885,815.383911 
	C654.712402,805.910706 654.693665,796.437317 654.706848,786.964050 
	C654.711853,783.398804 656.528015,781.052673 660.047180,781.078735 
	C663.529480,781.104431 666.127075,783.055237 666.224915,786.899841 
	C666.381348,793.045593 666.418640,799.200012 666.276184,805.345398 
	C666.202332,808.530762 667.297546,809.923523 670.589111,809.760559 
	C674.069946,809.588196 677.572632,809.629150 681.055725,809.791016 
	C684.578857,809.954834 687.390930,811.396423 687.184265,815.436646 
	C686.995911,819.119873 684.615051,821.087158 680.959839,821.241943 
	C677.807434,821.375488 674.645691,821.286377 670.993896,821.295410 
z"/>
<path fill="#21b359" opacity="1.000000" stroke="none" 
	d="
M744.427368,791.705383 
	C750.026001,791.692383 755.175598,791.571350 760.315979,791.736572 
	C765.425659,791.900757 768.723938,795.032104 768.969421,799.574951 
	C769.190002,803.656372 766.052307,807.124573 761.104736,807.478882 
	C755.823120,807.857117 750.489624,807.906433 745.199158,807.660889 
	C739.479553,807.395508 736.995239,805.079041 736.699707,800.588806 
	C736.366760,795.530396 738.199829,793.296387 744.427368,791.705383 
z"/>
<path fill="#21b359" opacity="1.000000" stroke="none" 
	d="
M292.480621,793.077148 
	C295.933105,795.748779 297.885559,798.819641 296.320953,802.797424 
	C294.680847,806.967285 290.923920,808.034973 286.862671,807.720032 
	C282.369141,807.371521 277.894501,807.613892 273.411835,807.570374 
	C268.934601,807.527039 266.409088,804.774353 265.788513,800.466187 
	C265.230865,796.594604 267.976410,792.296753 271.892822,792.038635 
	C278.624481,791.595154 285.473877,790.593079 292.480621,793.077148 
z"/>
<path fill="#21b359" opacity="1.000000" stroke="none" 
	d="
M478.511536,335.464478 
	C512.867676,309.317932 567.271057,321.895325 579.604919,368.991089 
	C581.273926,375.364288 580.601746,376.237610 573.900696,376.255768 
	C562.906250,376.285583 551.911255,376.229340 540.917297,376.312561 
	C535.520569,376.353424 531.501038,379.812744 531.650391,384.022644 
	C531.798889,388.210571 535.942322,391.608704 541.199768,391.634308 
	C552.693787,391.690308 564.188354,391.633942 575.682495,391.663147 
	C577.303528,391.667267 579.024109,391.142151 580.506104,392.264893 
	C582.552185,412.749084 562.248230,438.615845 537.597229,445.720764 
	C508.658752,454.061462 477.687408,442.986023 462.752655,416.181519 
	C447.852509,389.439117 454.619202,355.262787 478.511536,335.464478 
M483.183289,372.738464 
	C481.604462,376.065735 480.322449,379.479736 480.432526,383.239532 
	C480.546326,387.126831 481.450531,390.730652 485.897949,391.575348 
	C489.207214,392.203796 492.473175,388.460144 492.565125,383.773468 
	C492.710449,376.363068 496.309021,370.936218 501.525208,366.136047 
	C506.275726,361.764343 512.014526,360.030212 518.162048,358.920074 
	C521.867920,358.250885 524.286377,355.825745 523.615723,351.870544 
	C522.932678,347.841614 519.812561,346.245575 515.944214,346.176270 
	C514.809448,346.155914 513.648987,346.522247 512.530029,346.822113 
	C498.757843,350.512695 489.248352,359.126282 483.183289,372.738464 
z"/>
</svg>